<svg xmlns="http://www.w3.org/2000/svg" width="143.699" height="143.699" viewBox="0 0 143.699 143.699"><path fill="#F8ED43" d="M0 0h143.7v143.7H0z"/><path fill="#262626" d="M71.85 21.064c-22.05 0-39.99 17.938-39.99 39.988s17.94 39.99 39.99 39.99 39.99-17.94 39.99-39.99S93.9 21.064 71.85 21.064z"/><path fill="#F8ED43" d="M93.9 86.887c-4.41 1.97-11.176 3.76-17.96.803-6.22-2.71-7.838-7.71-9.55-13-1.78-5.496-3.796-11.726-11.458-15.015-7.97-3.423-13.563-2.085-17.034-.122.788-18.047 15.712-32.488 33.95-32.488 18.743 0 33.99 15.247 33.99 33.988 0 10.332-4.64 19.595-11.937 25.834z"/><path d="M53.713 119.5v-9.94h4.2c.43 0 .824.092 1.183.273s.67.42.93.714.465.628.61 1c.145.375.217.753.217 1.135 0 .364-.054.712-.16 1.043-.108.332-.258.63-.45.896s-.42.49-.692.68c-.27.18-.57.31-.91.37l2.44 3.84h-1.11l-2.33-3.66H54.7v3.67h-.98zm.98-4.536h3.248c.29 0 .56-.062.8-.188s.44-.297.61-.512c.17-.214.3-.457.39-.728.1-.27.14-.556.14-.854 0-.298-.05-.585-.16-.86-.1-.275-.25-.516-.43-.722-.18-.205-.39-.368-.64-.49-.25-.12-.5-.182-.77-.182H54.7v4.536zm10.865 4.676c-.532 0-1.018-.1-1.456-.3-.44-.2-.82-.475-1.14-.82-.323-.345-.573-.746-.75-1.203-.177-.458-.266-.938-.266-1.442 0-.514.09-1 .273-1.456.18-.46.43-.86.75-1.21s.7-.62 1.14-.83c.44-.21.92-.31 1.44-.31.52 0 1 .1 1.45.31.44.2.82.48 1.14.82.32.34.57.74.75 1.2.18.45.27.94.27 1.45 0 .5-.09.98-.27 1.44-.18.45-.43.85-.75 1.2-.32.34-.71.62-1.15.82-.44.2-.93.3-1.46.3zm-2.646-3.752c0 .41.07.79.21 1.142.14.35.33.657.567.924.23.266.51.474.84.623.32.15.66.224 1.02.224s.7-.07 1.03-.23c.32-.15.6-.36.84-.63.24-.26.43-.57.57-.93.14-.35.21-.73.21-1.14 0-.4-.07-.78-.21-1.14s-.33-.67-.58-.93c-.24-.26-.53-.47-.85-.63-.32-.15-.67-.23-1.03-.23s-.71.08-1.02.23c-.32.16-.6.37-.84.64s-.44.59-.58.95c-.14.36-.21.75-.21 1.16zm10.793 3.71c-.504 0-.963-.104-1.378-.314-.416-.21-.775-.488-1.078-.833-.31-.34-.54-.74-.71-1.19s-.25-.91-.25-1.38c0-.5.08-.98.24-1.45.16-.46.39-.86.69-1.21.3-.34.65-.62 1.07-.82.41-.2.87-.31 1.38-.31.62 0 1.16.16 1.62.47.46.32.85.71 1.17 1.19v-1.52h.85v7.32c0 .51-.1.95-.29 1.34-.19.39-.45.71-.77.97s-.7.46-1.14.59-.9.2-1.38.2c-.84 0-1.52-.15-2.03-.45s-.93-.7-1.25-1.2l.582-.46c.29.47.672.81 1.15 1.03.48.22.99.33 1.54.33.355 0 .69-.05 1.01-.15.316-.09.594-.24.832-.43.233-.19.423-.43.563-.73.14-.29.21-.63.21-1.02v-1.44c-.28.465-.665.834-1.15 1.104s-.99.406-1.524.406zm.266-.798c.28 0 .56-.05.83-.153.27-.104.52-.24.74-.413.22-.173.4-.366.56-.58.15-.216.25-.436.3-.66v-2.253c-.1-.26-.24-.5-.42-.72-.17-.22-.37-.41-.6-.57-.22-.16-.46-.28-.72-.38-.25-.09-.51-.14-.77-.14-.41 0-.78.09-1.1.26-.32.18-.59.4-.82.68-.22.28-.39.6-.51.95-.12.36-.17.72-.17 1.08 0 .39.07.77.21 1.12.14.36.336.67.58.93.25.27.537.48.864.63.33.16.68.23 1.066.23zm8.62.84c-.53 0-1.02-.1-1.46-.3-.44-.2-.83-.477-1.15-.827-.32-.35-.58-.753-.76-1.21-.18-.458-.27-.948-.27-1.47 0-.515.09-.997.27-1.45.19-.452.44-.85.76-1.19.32-.34.71-.61 1.16-.81.45-.2.94-.302 1.46-.302.537 0 1.02.11 1.468.31.44.2.82.48 1.14.82.317.35.565.74.74 1.19.177.45.267.93.267 1.43v.23c0 .08-.007.13-.015.16h-6.25c.027.4.12.76.27 1.09s.354.62.596.86c.24.24.52.43.834.57.31.14.643.2 1 .2.23 0 .464-.03.7-.1s.445-.15.64-.27c.2-.11.377-.25.537-.41.155-.16.28-.34.36-.54l.82.23c-.12.27-.28.514-.48.73-.21.22-.44.41-.71.574-.27.164-.57.29-.9.38-.33.09-.67.133-1.02.133zm2.69-4.172c-.03-.392-.12-.75-.27-1.07-.15-.322-.35-.6-.59-.833s-.51-.416-.82-.547c-.31-.13-.64-.195-1-.195-.35 0-.69.065-1.01.195-.31.13-.59.313-.83.547s-.43.513-.57.84c-.14.326-.23.68-.26 1.063h5.37zm6.02-2.422c-.64.02-1.2.196-1.68.532-.47.336-.81.798-1.01 1.386v4.536h-.95v-7.294h.9v1.75c.27-.56.64-1 1.1-1.316.46-.316.95-.476 1.47-.476.08 0 .14.005.18.014v.868z" fill="#262626"/><path fill="#EDDA11" d="M71.85 95.042c-18.06 0-32.867-14.157-33.923-31.955 2.504-1.94 7.583-4.19 15.822-.656 6.41 2.76 8.05 7.82 9.78 13.19 1.84 5.69 3.75 11.58 11.21 14.83 3.04 1.33 6.05 1.84 8.88 1.84.6 0 1.2-.02 1.78-.07-4.16 1.82-8.75 2.84-13.57 2.84z"/></svg>