<svg xmlns="http://www.w3.org/2000/svg" width="79.979" height="101.558" viewBox="0 0 79.979 101.558"><path fill="#262626" d="M39.99 0C17.94 0 0 17.938 0 39.988s17.94 39.99 39.99 39.99 39.99-17.94 39.99-39.99S62.04 0 39.99 0z"/><path fill="#F8ED43" d="M62.04 65.822c-4.41 1.97-11.176 3.76-17.96.803-6.22-2.71-7.838-7.71-9.55-13C32.75 48.13 30.734 41.9 23.072 38.61c-7.97-3.423-13.563-2.085-17.034-.122C6.826 20.44 21.75 6 39.988 6c18.743 0 33.99 15.247 33.99 33.988 0 10.332-4.64 19.596-11.937 25.834z"/><path d="M21.853 98.436v-9.94h4.2c.43 0 .824.092 1.183.273s.67.42.93.71.465.63.61 1c.145.37.217.75.217 1.13 0 .36-.054.71-.16 1.04-.108.33-.258.63-.45.89s-.42.49-.692.67c-.27.18-.57.3-.91.37l2.44 3.83h-1.11l-2.33-3.67h-2.94v3.67h-.98zm.98-4.537h3.248c.29 0 .56-.07.8-.19s.44-.3.61-.51c.17-.22.3-.46.39-.73.1-.27.14-.56.14-.86 0-.3-.05-.59-.16-.86-.1-.28-.25-.52-.43-.72-.18-.21-.39-.37-.64-.49s-.5-.18-.77-.18h-3.17v4.54zm10.864 4.67c-.532 0-1.018-.1-1.456-.3-.43-.2-.81-.48-1.14-.82-.32-.35-.57-.75-.75-1.21-.17-.46-.26-.94-.26-1.44 0-.52.09-1 .28-1.46.18-.46.44-.86.76-1.21s.7-.62 1.14-.83c.44-.21.92-.31 1.45-.31.52 0 1.01.1 1.45.31.44.2.83.48 1.15.82.32.34.57.74.76 1.2.19.45.28.94.28 1.45 0 .5-.09.98-.264 1.44-.174.45-.424.86-.75 1.2-.32.35-.7.62-1.144.82-.44.2-.93.3-1.46.3zm-2.647-3.75c0 .41.07.79.21 1.14.14.35.33.65.57.92.24.26.52.47.84.62.32.15.666.22 1.03.22s.707-.08 1.03-.23c.32-.16.603-.37.846-.63.242-.27.434-.58.574-.93.14-.36.21-.74.21-1.15 0-.4-.07-.79-.21-1.15s-.333-.67-.575-.94c-.243-.27-.525-.48-.847-.63-.322-.16-.665-.23-1.03-.23-.363 0-.704.07-1.02.23-.32.15-.6.36-.84.63s-.435.59-.575.95c-.14.36-.21.74-.21 1.15zm10.796 3.71c-.504 0-.963-.11-1.378-.32-.416-.21-.775-.49-1.078-.84-.304-.35-.54-.74-.708-1.19s-.25-.91-.25-1.39c0-.51.08-.99.245-1.45.163-.46.394-.87.693-1.21.298-.35.656-.62 1.07-.83.417-.21.876-.31 1.38-.31.625 0 1.166.15 1.623.47.46.31.85.7 1.178 1.18v-1.52h.86v7.32c0 .5-.09.95-.28 1.33-.19.39-.45.71-.77.97s-.7.454-1.13.59-.89.2-1.38.2c-.84 0-1.51-.15-2.03-.45s-.93-.7-1.24-1.2l.59-.46c.29.462.67.81 1.15 1.03.48.22.99.33 1.54.33.36 0 .69-.05 1.01-.15.32-.1.6-.246.84-.438.24-.19.43-.44.57-.73.14-.297.21-.64.21-1.03V97c-.28.466-.66.835-1.146 1.105s-.996.403-1.53.403zm.267-.8c.28 0 .558-.05.827-.16.27-.11.515-.24.735-.42.22-.18.402-.37.553-.59.148-.22.246-.44.293-.66v-2.25c-.1-.26-.24-.51-.42-.73-.17-.23-.37-.42-.6-.57-.22-.16-.46-.29-.72-.38-.26-.1-.51-.14-.78-.14-.41 0-.77.08-1.1.26-.32.17-.59.4-.82.68-.22.28-.39.59-.51.95-.11.35-.17.71-.17 1.08 0 .39.07.76.21 1.12.14.35.34.66.58.93.25.26.54.47.86.63.33.15.68.23 1.07.23zm8.61.84c-.532 0-1.02-.1-1.463-.3-.444-.2-.83-.48-1.156-.83-.326-.35-.58-.76-.763-1.21-.18-.46-.27-.95-.27-1.47s.09-1 .27-1.45c.18-.45.44-.85.76-1.19.32-.34.71-.61 1.16-.81.45-.2.94-.3 1.46-.3.53 0 1.02.1 1.47.3.45.2.83.47 1.14.82.32.34.57.74.75 1.19.18.44.27.92.27 1.43v.22c0 .07 0 .12-.01.15H48.1c.03.39.12.75.272 1.08s.35.62.594.86.52.43.834.56c.31.13.644.2 1 .2.23 0 .465-.04.7-.1s.446-.16.64-.27c.195-.11.37-.25.53-.41.16-.17.28-.35.36-.54l.83.22c-.112.27-.27.52-.48.73-.2.22-.44.41-.71.575-.27.163-.57.29-.892.38-.323.09-.664.133-1.02.133zm2.69-4.17c-.03-.39-.12-.75-.274-1.07-.16-.32-.35-.6-.59-.83s-.52-.42-.83-.55c-.31-.13-.65-.2-1-.2-.36 0-.69.06-1.01.19-.32.13-.6.31-.83.55s-.43.51-.58.84c-.15.32-.23.68-.26 1.06h5.36zm6.018-2.42c-.64.02-1.2.19-1.68.53-.47.33-.81.8-1 1.38v4.53h-.95v-7.29h.9v1.75c.27-.56.64-1 1.1-1.32.46-.32.95-.48 1.47-.48.08 0 .14 0 .18.01v.87z" fill="#262626"/><path fill="#EDDA11" d="M39.99 73.978c-18.06 0-32.867-14.157-33.923-31.955 2.504-1.94 7.583-4.19 15.822-.656 6.41 2.753 8.05 7.818 9.78 13.182 1.84 5.69 3.75 11.57 11.21 14.82 3.04 1.32 6.05 1.84 8.88 1.84.6 0 1.2-.03 1.78-.07-4.16 1.81-8.75 2.83-13.57 2.83z"/></svg>